<svg version="1.1" id="Layer_1" xmlns="http://www.w3.org/2000/svg" xmlns:xlink="http://www.w3.org/1999/xlink" x="0px" y="0px"
	 width="100%" viewBox="0 0 1200 1200" enable-background="new 0 0 1200 1200" xml:space="preserve">
<path fill="#FFFFFF" opacity="1.000000" stroke="none" 
	d="
M692.000000,1201.000000 
	C461.333344,1201.000000 231.166672,1201.000000 1.000000,1201.000000 
	C1.000000,801.000000 1.000000,401.000000 1.000000,1.000000 
	C401.000000,1.000000 801.000000,1.000000 1201.000000,1.000000 
	C1201.000000,401.000000 1201.000000,801.000000 1201.000000,1201.000000 
	C1031.500000,1201.000000 862.000000,1201.000000 692.000000,1201.000000 
M299.925415,553.384827 
	C299.001129,548.683044 298.076843,543.981201 297.940582,539.263489 
	C307.471069,541.393433 317.006012,541.357178 326.594360,539.557739 
	C364.696014,532.407166 389.336273,495.930695 384.259247,459.197021 
	C378.782227,419.569244 340.338013,390.741821 301.175323,398.105743 
	C276.520996,402.741547 258.507996,416.241394 247.632324,439.103302 
	C242.047592,450.842987 240.703506,463.238617 240.190918,475.870483 
	C225.277878,469.855927 209.845322,468.066132 193.895538,469.903595 
	C168.227722,472.860504 147.094391,484.475250 130.907318,504.290436 
	C113.895622,525.115051 106.672211,549.224670 109.982483,576.202576 
	C113.378059,603.875732 126.355247,625.933716 148.710556,642.502380 
	C159.352661,650.389771 171.366806,655.398682 183.708466,659.712952 
	C178.942200,682.762390 180.568436,705.299927 188.952957,727.345825 
	C202.940338,764.123657 229.477020,787.720642 266.334137,799.772644 
	C287.675110,806.751099 309.554657,806.951599 331.357056,800.977295 
	C351.587799,795.433777 369.267212,785.467407 384.520691,771.033081 
	C398.710480,757.605286 408.691498,741.452820 414.653534,723.070740 
	C417.559631,714.110840 418.292145,704.446045 420.779297,694.808350 
	C430.036438,693.769165 438.652069,691.042603 445.909485,684.956055 
	C459.537018,673.526978 463.509888,658.187012 463.311737,641.262756 
	C463.141510,626.725769 459.789154,613.192261 449.015228,602.675964 
	C432.507812,586.563293 405.597900,585.164795 385.183563,598.922302 
	C378.609589,593.938171 372.412933,588.315979 365.358368,584.144592 
	C357.900360,579.734558 349.625336,576.706299 341.126404,572.788269 
	C333.779785,562.905823 323.824432,557.362061 311.810883,555.418640 
	C307.839111,554.776184 303.789581,554.614380 299.925415,553.384827 
M544.047180,590.101929 
	C531.864136,588.693604 520.856262,591.178101 511.614777,601.146667 
	C511.215424,597.278015 510.946014,594.667969 510.635376,591.658630 
	C506.557770,591.658630 502.583527,591.658630 498.609283,591.658630 
	C494.685089,591.658630 490.760864,591.658630 486.856384,591.658630 
	C486.856384,638.793762 486.856384,685.240417 486.856384,731.778320 
	C495.482697,731.778320 503.909637,731.778320 512.829956,731.778320 
	C512.829956,716.205017 512.829956,700.847900 512.829956,685.057312 
	C533.373230,703.484924 566.590454,695.896484 574.625427,664.020447 
	C578.394653,649.067444 578.409729,634.109497 574.274048,619.190063 
	C570.035889,603.900879 560.984131,593.526978 544.047180,590.101929 
M740.239990,593.712585 
	C726.606628,599.874146 718.463257,610.484131 714.790039,624.831787 
	C712.145020,635.162964 712.039429,645.531494 713.951538,655.949646 
	C717.120972,673.218994 726.057800,686.194092 743.077698,691.947144 
	C760.696533,697.902710 777.740112,696.226746 792.240845,683.746582 
	C805.012939,672.754150 808.502075,657.655457 808.325867,641.461609 
	C808.167664,626.917542 805.012878,613.192505 794.142822,602.837402 
	C778.686707,588.113586 760.371277,586.845764 740.239990,593.712585 
M858.094360,606.505066 
	C858.094360,601.690979 858.094360,596.876831 858.094360,591.864319 
	C849.309753,591.864319 840.858032,591.864319 831.998901,591.864319 
	C831.998901,602.633850 831.873657,613.259888 832.030457,623.881714 
	C832.229370,637.355713 831.792053,650.915588 833.171265,664.279236 
	C835.829407,690.034607 862.776978,703.432251 884.188904,690.064331 
	C888.409180,687.429626 891.869202,683.577209 895.925415,680.074158 
	C896.446716,684.376343 896.953857,688.561951 897.447144,692.633057 
	C905.518188,692.633057 913.235474,692.633057 920.747620,692.633057 
	C920.747620,658.832092 920.747620,625.399475 920.747620,591.910522 
	C912.057251,591.910522 903.622681,591.910522 894.905640,591.910522 
	C894.905640,593.810120 894.905701,595.463013 894.905701,597.115845 
	C894.905701,617.614258 894.919312,638.112671 894.879333,658.611023 
	C894.876160,660.227356 894.827393,661.974182 894.241333,663.436584 
	C891.361816,670.621521 881.862488,674.872559 871.784485,673.668213 
	C863.635620,672.694519 860.203735,669.135681 858.792053,659.920410 
	C858.366577,657.142944 858.136780,654.308899 858.124451,651.499390 
	C858.059937,636.834106 858.094360,622.168457 858.094360,606.505066 
M1033.495483,676.859497 
	C1040.799683,661.657715 1036.458130,647.925903 1021.346008,640.646362 
	C1015.161011,637.667053 1008.325073,635.951599 1001.674194,634.049744 
	C993.908386,631.829102 985.682861,630.856628 978.283325,627.817322 
	C971.137634,624.882141 970.976257,616.943298 977.041382,612.195068 
	C987.898560,603.695190 1006.841064,609.125244 1011.047119,622.117310 
	C1019.410339,622.117310 1027.835205,622.117310 1036.260986,622.117310 
	C1036.189575,610.869873 1030.810181,601.332764 1020.361755,596.342407 
	C1001.653748,587.407288 982.477173,586.709045 963.791870,596.281860 
	C953.904236,601.347595 947.723755,609.748657 947.772156,621.437378 
	C947.819397,632.850525 954.715820,640.119019 964.281982,644.324951 
	C972.715149,648.032715 981.867554,650.119629 990.731689,652.826111 
	C995.781189,654.367737 1001.073120,655.268982 1005.927673,657.259033 
	C1012.878906,660.108521 1013.644714,668.098999 1007.746033,672.394287 
	C995.075867,681.620422 974.181458,675.577393 968.781921,661.139709 
	C960.840210,661.139709 952.906921,661.139709 944.721497,661.139709 
	C944.592407,669.351379 947.897644,675.888367 953.418213,681.222778 
	C966.738159,694.093323 983.221008,696.370056 1000.670227,694.352356 
	C1013.522156,692.866272 1025.379639,689.038147 1033.495483,676.859497 
M690.988647,674.678894 
	C691.283386,672.118103 689.875366,671.829346 687.713989,671.860107 
	C679.639221,671.974854 671.561829,671.905884 663.134155,671.905884 
	C663.134155,644.832886 663.134155,618.399719 663.134155,591.839111 
	C644.650085,591.839111 626.534119,591.839111 608.316772,591.839111 
	C608.316772,598.874146 608.316772,605.729980 608.316772,612.978516 
	C617.951355,612.978516 627.288940,612.978516 636.740173,612.978516 
	C636.740173,632.772156 636.740173,652.168823 636.740173,672.011353 
	C627.096130,672.011353 617.701904,672.011353 608.203003,672.011353 
	C608.203003,679.170593 608.203003,685.882324 608.203003,692.704956 
	C635.779053,692.704956 663.167358,692.704956 690.967102,692.704956 
	C690.967102,686.829407 690.967102,681.244019 690.988647,674.678894 
M661.038574,555.423035 
	C658.812744,554.350525 656.688660,552.885925 654.342590,552.276550 
	C646.256226,550.176331 638.231140,554.055908 635.888611,560.905823 
	C633.440125,568.065491 636.480164,574.892029 643.567444,578.149048 
	C649.642578,580.940979 658.026001,579.215393 662.319214,574.289368 
	C666.345825,569.669250 666.050293,562.337219 661.038574,555.423035 
z"/>
<path fill="#B2EBF9" opacity="1.000000" stroke="none" 
	d="
M341.707184,573.074524 
	C349.625336,576.706299 357.900360,579.734558 365.358368,584.144592 
	C372.412933,588.315979 378.609589,593.938171 385.377289,599.285889 
	C381.966400,603.888672 377.594696,607.692383 374.896851,612.446106 
	C365.755890,628.553040 365.731964,645.843872 370.700226,663.099182 
	C374.403198,675.959961 382.396973,686.201416 395.249207,690.728699 
	C403.047913,693.475891 411.725677,693.727539 420.008545,695.100281 
	C418.292145,704.446045 417.559631,714.110840 414.653534,723.070740 
	C408.691498,741.452820 398.710480,757.605286 384.520691,771.033081 
	C369.267212,785.467407 351.587799,795.433777 331.357056,800.977295 
	C309.554657,806.951599 287.675110,806.751099 266.334137,799.772644 
	C229.477020,787.720642 202.940338,764.123657 188.952957,727.345825 
	C180.568436,705.299927 178.942200,682.762390 184.207306,659.360840 
	C205.890503,663.252319 226.287766,661.137573 245.861038,651.690002 
	C247.562561,650.868774 249.828125,651.216187 251.940887,651.411621 
	C252.367569,653.256104 252.616699,654.728760 253.013031,656.160645 
	C257.422363,672.089661 265.579010,685.343506 281.609070,691.506226 
	C297.411133,697.581116 313.373230,696.512634 328.140900,688.068237 
	C342.341797,679.947754 348.706512,666.758667 350.056091,650.483643 
	C341.156738,650.483643 332.716431,650.483643 324.713348,650.483643 
	C322.865143,655.587952 321.863159,661.011292 319.127045,665.338013 
	C314.018616,673.416199 305.465881,673.922729 296.923340,673.049805 
	C288.323700,672.171021 282.477631,666.842590 280.739868,658.957947 
	C278.586243,649.186646 278.276123,639.008972 277.420258,628.790283 
	C280.860657,623.784180 284.233704,619.105347 287.203583,614.183167 
	C294.267059,602.476318 298.803558,589.869324 300.438477,576.094177 
	C315.126770,576.206726 318.197449,579.339661 324.543060,600.371216 
	C332.862671,600.371216 341.262329,600.371216 349.994019,600.371216 
	C349.521973,590.404663 346.246857,581.553955 341.707184,573.074524 
z"/>
<path fill="#AEA1EA" opacity="1.000000" stroke="none" 
	d="
M251.831711,651.020752 
	C249.828125,651.216187 247.562561,650.868774 245.861038,651.690002 
	C226.287766,661.137573 205.890503,663.252319 184.362000,659.014160 
	C171.366806,655.398682 159.352661,650.389771 148.710556,642.502380 
	C126.355247,625.933716 113.378059,603.875732 109.982483,576.202576 
	C106.672211,549.224670 113.895622,525.115051 130.907318,504.290436 
	C147.094391,484.475250 168.227722,472.860504 193.895538,469.903595 
	C209.845322,468.066132 225.277878,469.855927 240.725800,476.284180 
	C241.490265,477.308868 241.853394,477.903656 241.930023,478.533295 
	C244.421005,498.998413 254.346176,515.087585 270.808990,527.216125 
	C278.720428,533.044617 287.557556,537.035278 297.152527,539.279419 
	C298.076843,543.981201 299.001129,548.683044 299.472961,553.949829 
	C275.316406,555.837036 260.846771,569.031128 254.080811,590.855469 
	C247.970413,610.565247 249.810532,630.856262 251.831711,651.020752 
z"/>
<path fill="#8C55A1" opacity="1.000000" stroke="none" 
	d="
M297.546570,539.271484 
	C287.557556,537.035278 278.720428,533.044617 270.808990,527.216125 
	C254.346176,515.087585 244.421005,498.998413 241.930023,478.533295 
	C241.853394,477.903656 241.490265,477.308868 241.088837,476.336243 
	C240.703506,463.238617 242.047592,450.842987 247.632324,439.103302 
	C258.507996,416.241394 276.520996,402.741547 301.175323,398.105743 
	C340.338013,390.741821 378.782227,419.569244 384.259247,459.197021 
	C389.336273,495.930695 364.696014,532.407166 326.594360,539.557739 
	C317.006012,541.357178 307.471069,541.393433 297.546570,539.271484 
z"/>
<path fill="#020202" opacity="1.000000" stroke="none" 
	d="
M544.491211,590.160034 
	C560.984131,593.526978 570.035889,603.900879 574.274048,619.190063 
	C578.409729,634.109497 578.394653,649.067444 574.625427,664.020447 
	C566.590454,695.896484 533.373230,703.484924 512.829956,685.057312 
	C512.829956,700.847900 512.829956,716.205017 512.829956,731.778320 
	C503.909637,731.778320 495.482697,731.778320 486.856384,731.778320 
	C486.856384,685.240417 486.856384,638.793762 486.856384,591.658630 
	C490.760864,591.658630 494.685089,591.658630 498.609283,591.658630 
	C502.583527,591.658630 506.557770,591.658630 510.635376,591.658630 
	C510.946014,594.667969 511.215424,597.278015 511.614777,601.146667 
	C520.856262,591.178101 531.864136,588.693604 544.491211,590.160034 
M512.775085,637.501770 
	C512.775085,645.155579 512.678284,652.811584 512.844910,660.461731 
	C512.885254,662.314819 513.392212,664.405457 514.374512,665.947327 
	C518.595154,672.572266 525.192383,674.420654 532.517090,673.866028 
	C539.992065,673.299988 545.347168,669.138916 547.887573,662.227661 
	C552.750793,648.996765 552.942078,635.463501 547.760742,622.339661 
	C542.947266,610.147644 525.995239,606.716309 516.637878,615.889465 
	C514.542725,617.943542 513.415344,621.505493 512.926880,624.547363 
	C512.301758,628.440308 512.775085,632.509644 512.775085,637.501770 
z"/>
<path fill="#030303" opacity="1.000000" stroke="none" 
	d="
M251.940887,651.411621 
	C249.810532,630.856262 247.970413,610.565247 254.080811,590.855469 
	C260.846771,569.031128 275.316406,555.837036 299.398041,554.373779 
	C303.789581,554.614380 307.839111,554.776184 311.810883,555.418640 
	C323.824432,557.362061 333.779785,562.905823 341.416809,572.931396 
	C346.246857,581.553955 349.521973,590.404663 349.994019,600.371216 
	C341.262329,600.371216 332.862671,600.371216 324.543060,600.371216 
	C318.197449,579.339661 315.126770,576.206726 300.042236,576.043274 
	C288.538513,576.823792 283.150024,583.697205 280.115753,592.987915 
	C276.280396,604.731323 277.037842,616.907715 277.169647,629.006836 
	C278.276123,639.008972 278.586243,649.186646 280.739868,658.957947 
	C282.477631,666.842590 288.323700,672.171021 296.923340,673.049805 
	C305.465881,673.922729 314.018616,673.416199 319.127045,665.338013 
	C321.863159,661.011292 322.865143,655.587952 324.713348,650.483643 
	C332.716431,650.483643 341.156738,650.483643 350.056091,650.483643 
	C348.706512,666.758667 342.341797,679.947754 328.140900,688.068237 
	C313.373230,696.512634 297.411133,697.581116 281.609070,691.506226 
	C265.579010,685.343506 257.422363,672.089661 253.013031,656.160645 
	C252.616699,654.728760 252.367569,653.256104 251.940887,651.411621 
z"/>
<path fill="#020202" opacity="1.000000" stroke="none" 
	d="
M740.565674,593.506958 
	C760.371277,586.845764 778.686707,588.113586 794.142822,602.837402 
	C805.012878,613.192505 808.167664,626.917542 808.325867,641.461609 
	C808.502075,657.655457 805.012939,672.754150 792.240845,683.746582 
	C777.740112,696.226746 760.696533,697.902710 743.077698,691.947144 
	C726.057800,686.194092 717.120972,673.218994 713.951538,655.949646 
	C712.039429,645.531494 712.145020,635.162964 714.790039,624.831787 
	C718.463257,610.484131 726.606628,599.874146 740.565674,593.506958 
M739.471741,632.213684 
	C739.642639,639.972046 739.054810,647.841064 740.165649,655.462402 
	C741.757629,666.384827 749.440613,673.403809 758.634949,673.989624 
	C768.858276,674.640991 776.637451,669.504333 779.754395,659.517212 
	C783.300964,648.153564 783.256287,636.594910 779.728088,625.274048 
	C777.812622,619.127747 774.078796,614.016541 767.411865,611.973267 
	C753.388977,607.675415 742.060425,615.628174 739.471741,632.213684 
z"/>
<path fill="#020202" opacity="1.000000" stroke="none" 
	d="
M420.393921,694.954346 
	C411.725677,693.727539 403.047913,693.475891 395.249207,690.728699 
	C382.396973,686.201416 374.403198,675.959961 370.700226,663.099182 
	C365.731964,645.843872 365.755890,628.553040 374.896851,612.446106 
	C377.594696,607.692383 381.966400,603.888672 385.713318,599.360901 
	C405.597900,585.164795 432.507812,586.563293 449.015228,602.675964 
	C459.789154,613.192261 463.141510,626.725769 463.311737,641.262756 
	C463.509888,658.187012 459.537018,673.526978 445.909485,684.956055 
	C438.652069,691.042603 430.036438,693.769165 420.393921,694.954346 
M400.370148,617.576843 
	C391.347931,632.192627 391.540253,647.585205 397.785492,662.832092 
	C401.603912,672.154236 409.792328,675.345520 420.785583,673.480835 
	C427.720825,671.513062 432.180878,666.933472 434.449707,660.218811 
	C438.397522,648.535156 438.389709,636.633057 434.674042,625.041138 
	C429.787170,609.795105 411.618286,605.834045 400.370148,617.576843 
z"/>
<path fill="#010101" opacity="1.000000" stroke="none" 
	d="
M858.094360,607.004028 
	C858.094360,622.168457 858.059937,636.834106 858.124451,651.499390 
	C858.136780,654.308899 858.366577,657.142944 858.792053,659.920410 
	C860.203735,669.135681 863.635620,672.694519 871.784485,673.668213 
	C881.862488,674.872559 891.361816,670.621521 894.241333,663.436584 
	C894.827393,661.974182 894.876160,660.227356 894.879333,658.611023 
	C894.919312,638.112671 894.905701,617.614258 894.905701,597.115845 
	C894.905701,595.463013 894.905640,593.810120 894.905640,591.910522 
	C903.622681,591.910522 912.057251,591.910522 920.747620,591.910522 
	C920.747620,625.399475 920.747620,658.832092 920.747620,692.633057 
	C913.235474,692.633057 905.518188,692.633057 897.447144,692.633057 
	C896.953857,688.561951 896.446716,684.376343 895.925415,680.074158 
	C891.869202,683.577209 888.409180,687.429626 884.188904,690.064331 
	C862.776978,703.432251 835.829407,690.034607 833.171265,664.279236 
	C831.792053,650.915588 832.229370,637.355713 832.030457,623.881714 
	C831.873657,613.259888 831.998901,602.633850 831.998901,591.864319 
	C840.858032,591.864319 849.309753,591.864319 858.094360,591.864319 
	C858.094360,596.876831 858.094360,601.690979 858.094360,607.004028 
z"/>
<path fill="#020202" opacity="1.000000" stroke="none" 
	d="
M1033.299927,677.173340 
	C1025.379639,689.038147 1013.522156,692.866272 1000.670227,694.352356 
	C983.221008,696.370056 966.738159,694.093323 953.418213,681.222778 
	C947.897644,675.888367 944.592407,669.351379 944.721497,661.139709 
	C952.906921,661.139709 960.840210,661.139709 968.781921,661.139709 
	C974.181458,675.577393 995.075867,681.620422 1007.746033,672.394287 
	C1013.644714,668.098999 1012.878906,660.108521 1005.927673,657.259033 
	C1001.073120,655.268982 995.781189,654.367737 990.731689,652.826111 
	C981.867554,650.119629 972.715149,648.032715 964.281982,644.324951 
	C954.715820,640.119019 947.819397,632.850525 947.772156,621.437378 
	C947.723755,609.748657 953.904236,601.347595 963.791870,596.281860 
	C982.477173,586.709045 1001.653748,587.407288 1020.361755,596.342407 
	C1030.810181,601.332764 1036.189575,610.869873 1036.260986,622.117310 
	C1027.835205,622.117310 1019.410339,622.117310 1011.047119,622.117310 
	C1006.841064,609.125244 987.898560,603.695190 977.041382,612.195068 
	C970.976257,616.943298 971.137634,624.882141 978.283325,627.817322 
	C985.682861,630.856628 993.908386,631.829102 1001.674194,634.049744 
	C1008.325073,635.951599 1015.161011,637.667053 1021.346008,640.646362 
	C1036.458130,647.925903 1040.799683,661.657715 1033.299927,677.173340 
z"/>
<path fill="#010101" opacity="1.000000" stroke="none" 
	d="
M690.977905,675.168762 
	C690.967102,681.244019 690.967102,686.829407 690.967102,692.704956 
	C663.167358,692.704956 635.779053,692.704956 608.203003,692.704956 
	C608.203003,685.882324 608.203003,679.170593 608.203003,672.011353 
	C617.701904,672.011353 627.096130,672.011353 636.740173,672.011353 
	C636.740173,652.168823 636.740173,632.772156 636.740173,612.978516 
	C627.288940,612.978516 617.951355,612.978516 608.316772,612.978516 
	C608.316772,605.729980 608.316772,598.874146 608.316772,591.839111 
	C626.534119,591.839111 644.650085,591.839111 663.134155,591.839111 
	C663.134155,618.399719 663.134155,644.832886 663.134155,671.905884 
	C671.561829,671.905884 679.639221,671.974854 687.713989,671.860107 
	C689.875366,671.829346 691.283386,672.118103 690.977905,675.168762 
z"/>
<path fill="#030303" opacity="1.000000" stroke="none" 
	d="
M661.309326,555.686707 
	C666.050293,562.337219 666.345825,569.669250 662.319214,574.289368 
	C658.026001,579.215393 649.642578,580.940979 643.567444,578.149048 
	C636.480164,574.892029 633.440125,568.065491 635.888611,560.905823 
	C638.231140,554.055908 646.256226,550.176331 654.342590,552.276550 
	C656.688660,552.885925 658.812744,554.350525 661.309326,555.686707 
z"/>
<path fill="#AEA1EA" opacity="1.000000" stroke="none" 
	d="
M277.420258,628.790283 
	C277.037842,616.907715 276.280396,604.731323 280.115753,592.987915 
	C283.150024,583.697205 288.538513,576.823792 299.626587,576.117188 
	C298.803558,589.869324 294.267059,602.476318 287.203583,614.183167 
	C284.233704,619.105347 280.860657,623.784180 277.420258,628.790283 
z"/>
<path fill="#FDFDFD" opacity="1.000000" stroke="none" 
	d="
M512.775085,637.002319 
	C512.775085,632.509644 512.301758,628.440308 512.926880,624.547363 
	C513.415344,621.505493 514.542725,617.943542 516.637878,615.889465 
	C525.995239,606.716309 542.947266,610.147644 547.760742,622.339661 
	C552.942078,635.463501 552.750793,648.996765 547.887573,662.227661 
	C545.347168,669.138916 539.992065,673.299988 532.517090,673.866028 
	C525.192383,674.420654 518.595154,672.572266 514.374512,665.947327 
	C513.392212,664.405457 512.885254,662.314819 512.844910,660.461731 
	C512.678284,652.811584 512.775085,645.155579 512.775085,637.002319 
z"/>
<path fill="#FDFDFD" opacity="1.000000" stroke="none" 
	d="
M739.607117,631.795532 
	C742.060425,615.628174 753.388977,607.675415 767.411865,611.973267 
	C774.078796,614.016541 777.812622,619.127747 779.728088,625.274048 
	C783.256287,636.594910 783.300964,648.153564 779.754395,659.517212 
	C776.637451,669.504333 768.858276,674.640991 758.634949,673.989624 
	C749.440613,673.403809 741.757629,666.384827 740.165649,655.462402 
	C739.054810,647.841064 739.642639,639.972046 739.607117,631.795532 
z"/>
<path fill="#FDFDFD" opacity="1.000000" stroke="none" 
	d="
M400.941803,617.283936 
	C411.618286,605.834045 429.787170,609.795105 434.674042,625.041138 
	C438.389709,636.633057 438.397522,648.535156 434.449707,660.218811 
	C432.180878,666.933472 427.720825,671.513062 420.402344,673.042053 
	C417.717224,662.499817 416.192535,652.132812 412.881653,642.371582 
	C409.927216,633.661194 404.999023,625.620300 400.941803,617.283936 
z"/>
<path fill="#B2EBF9" opacity="1.000000" stroke="none" 
	d="
M400.655975,617.430420 
	C404.999023,625.620300 409.927216,633.661194 412.881653,642.371582 
	C416.192535,652.132812 417.717224,662.499817 420.009918,673.021362 
	C409.792328,675.345520 401.603912,672.154236 397.785492,662.832092 
	C391.540253,647.585205 391.347931,632.192627 400.655975,617.430420 
z"/>
</svg>